<svg width="37" height="36" viewBox="0 0 37 36" fill="none" xmlns="http://www.w3.org/2000/svg">
<path fill-rule="evenodd" clip-rule="evenodd" d="M18.875 0C8.93792 0 0.875 8.06292 0.875 18C0.875 27.9371 8.93792 36 18.875 36C28.7926 36 36.875 27.9371 36.875 18C36.875 8.06292 28.7926 0 18.875 0ZM30.7644 8.29717C32.9119 10.9132 34.2004 14.2516 34.2394 17.8633C33.7318 17.7657 28.6559 16.731 23.541 17.3753C23.4238 17.1215 23.3262 16.8481 23.2091 16.5748C22.8967 15.833 22.5453 15.0716 22.1939 14.3492C27.8555 12.0456 30.4325 8.72669 30.7644 8.29717ZM18.875 2.6551C22.7796 2.6551 26.3522 4.1193 29.0659 6.52061C28.7926 6.91106 26.4693 10.0152 21.003 12.0651C18.4845 7.43818 15.6928 3.65076 15.2633 3.06508C16.4151 2.79176 17.6255 2.6551 18.875 2.6551ZM12.3349 4.09979C12.7448 4.64641 15.478 8.45338 18.0355 12.9826C10.8511 14.8959 4.50625 14.8568 3.82294 14.8568C4.81858 10.0933 8.03986 6.13015 12.3349 4.09979ZM3.49105 18.0195C3.49105 17.8633 3.49105 17.7072 3.49105 17.551C4.15483 17.5705 11.6125 17.6681 19.285 15.3644C19.734 16.2234 20.144 17.1019 20.5344 17.9805C20.3392 18.0391 20.1245 18.0976 19.9292 18.1562C12.003 20.7137 7.78606 27.7028 7.43467 28.2885C4.9943 25.5748 3.49105 21.9631 3.49105 18.0195ZM18.875 33.384C15.3219 33.384 12.042 32.1735 9.44548 30.1432C9.71883 29.577 12.8425 23.564 21.5106 20.538C21.5496 20.5185 21.5691 20.5185 21.6082 20.4989C23.7752 26.1019 24.6538 30.8069 24.888 32.154C23.0334 32.9544 21.003 33.384 18.875 33.384ZM27.4455 30.7484C27.2893 29.8113 26.4694 25.321 24.4585 19.7961C29.2807 19.0347 33.4976 20.2842 34.0247 20.4599C33.3609 24.7353 30.901 28.4252 27.4455 30.7484Z" fill="white"/>
</svg>
