<svg width="37" height="38" viewBox="0 0 37 38" fill="none" xmlns="http://www.w3.org/2000/svg">
<path d="M18.8898 0C8.94088 0 0.875 8.29634 0.875 18.5295C0.875 26.3836 5.61963 33.0938 12.3214 35.7932C12.1583 34.3291 12.0249 32.072 12.3807 30.4707C12.7069 29.0219 14.4862 21.2594 14.4862 21.2594C14.4862 21.2594 13.9524 20.1461 13.9524 18.5142C13.9524 15.9369 15.4054 14.0153 17.2143 14.0153C18.7563 14.0153 19.4977 15.2049 19.4977 16.6232C19.4977 18.2092 18.5191 20.5883 18.0002 22.7997C17.5702 24.645 18.9046 26.1548 20.669 26.1548C23.8717 26.1548 26.3329 22.6777 26.3329 17.6755C26.3329 13.2375 23.2341 10.1417 18.8008 10.1417C13.6707 10.1417 10.6608 14.0916 10.6608 18.1787C10.6608 19.7648 11.2539 21.4729 11.9952 22.4032C12.1435 22.5862 12.1583 22.7539 12.1139 22.9369C11.9804 23.5165 11.669 24.7823 11.6097 25.0415C11.5356 25.377 11.3429 25.4533 11.0018 25.2855C8.74813 24.2027 7.33957 20.8323 7.33957 18.1025C7.33957 12.2615 11.4615 6.89328 19.2456 6.89328C25.4878 6.89328 30.351 11.4685 30.351 17.5992C30.351 23.9892 26.4367 29.1287 21.01 29.1287C19.1863 29.1287 17.4664 28.1526 16.8881 26.9936C16.8881 26.9936 15.9837 30.5317 15.7613 31.401C15.361 33.0176 14.2638 35.0307 13.5224 36.266C15.2127 36.7997 16.9919 37.0895 18.8601 37.0895C28.809 37.0895 36.8749 28.7932 36.8749 18.56C36.9046 8.29634 28.8387 0 18.8898 0Z" fill="white"/>
</svg>
